<svg xmlns="http://www.w3.org/2000/svg" viewBox="0 0 210 154.89"><defs><style>.\32 68aaaf5-3d75-4a33-9a99-aa61570f13b5{fill:none;stroke:#fff;stroke-miterlimit:10;stroke-width:2px;}</style></defs><g id="6fb6cbda-6943-49a6-879c-438b61755545"><g id="44052a80-0bb0-4ca8-86a7-97d99dfb202f"><path d="M97 27.54l-45-26a4 4 0 0 0-4 0l-45 26A3.93 3.93 0 0 0 1 31v52a3.94 3.94 0 0 0 2 3.4l32.91 19-22.66 29.22a4.85 4.85 0 0 0 .53 6.53L26.1 152.6a4.87 4.87 0 0 0 6.79-.18L97 86.4a3.94 3.94 0 0 0 2-3.4V31a3.93 3.93 0 0 0-2-3.46z" class="268aaaf5-3d75-4a33-9a99-aa61570f13b5"/><path d="M207 27.54l-45-26a4 4 0 0 0-4 0l-45 26a3.93 3.93 0 0 0-2 3.46v52a3.94 3.94 0 0 0 2 3.42l32.91 19-22.64 29.22a4.85 4.85 0 0 0 .53 6.53l12.3 11.43a4.87 4.87 0 0 0 6.79-.18L207 86.4a3.94 3.94 0 0 0 2-3.4V31a3.93 3.93 0 0 0-2-3.46z" class="268aaaf5-3d75-4a33-9a99-aa61570f13b5"/></g></g></svg>