<svg xmlns="http://www.w3.org/2000/svg" viewBox="0 0 400 562.69"><defs><style>.\30 95a5ee9-c9ad-4e57-8279-8edc8814a2c8{fill:#ff1e3c;}.a665e6df-c673-4ba3-96cb-87b24a426e85{fill:#0a0a0a;}.a9d2b796-1bef-49f5-8a63-e6f76c331339{opacity:0.8;}</style></defs><g id="50dc4dc2-5be3-4e06-94dc-6eb84ca6e73c"><g id="6fcfcb27-5f14-4148-b0fa-487ef2349d3d"><path d="M390.78 81.09l-12.23 22.32-13.13-7.76 25.36-14.56m9.22-9.4L389 78l-25.36 14.56-5.31 3 5.27 3.12 13.13 7.76 3.17 1.87 1.77-3.23 12.24-22.31L400 71.69z" class="095a5ee9-c9ad-4e57-8279-8edc8814a2c8"/><path d="M67.64 72.69a.41.41 0 0 0-.18 0l-10.29 5.99A.36.36 0 0 0 57 79v11.87a.38.38 0 0 0 .17.3l10.29 5.94a.36.36 0 0 0 .35 0l10.29-5.94a.36.36 0 0 0 .18-.3V79a.35.35 0 0 0-.18-.3l-10.29-5.96a.34.34 0 0 0-.17-.05z" class="095a5ee9-c9ad-4e57-8279-8edc8814a2c8"/><path d="M353.17 546.58l-8.72-29.89 18.08-4.69-9.36 34.55m.16 16.11l4.05-15 9.36-34.55 2-7.23-7.26 1.87-18.08 4.65-4.4 1.18 1.26 4.33L349 547.8l4.35 14.89z" class="a665e6df-c673-4ba3-96cb-87b24a426e85"/><g class="a9d2b796-1bef-49f5-8a63-e6f76c331339"><path d="M58.7 486.77a8 8 0 0 1-4-1.08L4 456.44a8.06 8.06 0 0 1-4-7V391a8.06 8.06 0 0 1 4-7l50.66-29.25a8.07 8.07 0 0 1 8 0L113.38 384a8.06 8.06 0 0 1 4 7v58.5a8.06 8.06 0 0 1-4 7l-50.66 29.19a8 8 0 0 1-4.02 1.08zm0-126.77a1.72 1.72 0 0 0-.85.23L7.19 389.5a1.72 1.72 0 0 0-.86 1.5v58.5a1.72 1.72 0 0 0 .86 1.5l50.66 29.25a1.74 1.74 0 0 0 1.71 0L110.22 451a1.73 1.73 0 0 0 .85-1.48V391a1.73 1.73 0 0 0-.85-1.48l-50.66-29.27a1.76 1.76 0 0 0-.86-.25z" class="a665e6df-c673-4ba3-96cb-87b24a426e85"/></g><path d="M299.8 19.69L311.18 0l11.58 7.2-23 12.49" class="a665e6df-c673-4ba3-96cb-87b24a426e85"/><path d="M282.64 511.43a.2.2 0 0 0-.11 0l-6.42 3.71a.21.21 0 0 0-.11.19v7.41a.21.21 0 0 0 .11.19l6.42 3.71a.28.28 0 0 0 .22 0l6.42-3.71a.24.24 0 0 0 .11-.19v-7.41a.24.24 0 0 0-.11-.19l-6.42-3.71a.23.23 0 0 0-.11 0z" class="095a5ee9-c9ad-4e57-8279-8edc8814a2c8"/></g></g></svg>