<svg xmlns="http://www.w3.org/2000/svg" viewBox="0 0 210 154.89"><defs><style>.\34 5e0fdb2-170d-412c-a5e0-67f44d79caab{fill:none;stroke:#0a0a0a;stroke-miterlimit:10;stroke-width:2px;opacity:0.05;}</style></defs><g id="16b38606-23ae-4d09-9564-b5c3040c39ec"><g id="68c17064-34ae-4377-a69d-db2007ce6373"><path d="M97 27.54l-45-26a4 4 0 0 0-4 0l-45 26A3.93 3.93 0 0 0 1 31v52a3.94 3.94 0 0 0 2 3.4l32.91 19-22.66 29.22a4.85 4.85 0 0 0 .53 6.53L26.1 152.6a4.87 4.87 0 0 0 6.79-.18L97 86.4a3.94 3.94 0 0 0 2-3.4V31a3.93 3.93 0 0 0-2-3.46z" class="45e0fdb2-170d-412c-a5e0-67f44d79caab"/><path d="M207 27.54l-45-26a4 4 0 0 0-4 0l-45 26a3.93 3.93 0 0 0-2 3.46v52a3.94 3.94 0 0 0 2 3.42l32.91 19-22.64 29.22a4.85 4.85 0 0 0 .53 6.53l12.3 11.43a4.87 4.87 0 0 0 6.79-.18L207 86.4a3.94 3.94 0 0 0 2-3.4V31a3.93 3.93 0 0 0-2-3.46z" class="45e0fdb2-170d-412c-a5e0-67f44d79caab"/></g></g></svg>